<?xml version="1.0" encoding="UTF-8" standalone="no"?>
<!-- Created with Inkscape (http://www.inkscape.org/) -->

<svg
   xmlns:dc="http://purl.org/dc/elements/1.1/"
   xmlns:cc="http://creativecommons.org/ns#"
   xmlns:rdf="http://www.w3.org/1999/02/22-rdf-syntax-ns#"
   xmlns:svg="http://www.w3.org/2000/svg"
   xmlns="http://www.w3.org/2000/svg"
   xmlns:sodipodi="http://sodipodi.sourceforge.net/DTD/sodipodi-0.dtd"
   xmlns:inkscape="http://www.inkscape.org/namespaces/inkscape"
   version="1.1"
   id="svg1465"
   xml:space="preserve"
   width="200"
   height="200"
   viewBox="0 0 200 200"
   sodipodi:docname="logo_black.svg"
   inkscape:version="0.92.2 (5c3e80d, 2017-08-06)"><metadata
     id="metadata1471"><rdf:RDF><cc:Work
         rdf:about=""><dc:format>image/svg+xml</dc:format><dc:type
           rdf:resource="http://purl.org/dc/dcmitype/StillImage" /><dc:title /></cc:Work></rdf:RDF></metadata><defs
     id="defs1469"><clipPath
       clipPathUnits="userSpaceOnUse"
       id="clipPath1483"><path
         d="M 0,595.276 H 841.89 V 0 H 0 Z"
         id="path1481"
         inkscape:connector-curvature="0" /></clipPath><clipPath
       clipPathUnits="userSpaceOnUse"
       id="clipPath1507"><path
         d="M 0,0 H 841.89 V 595.276 H 0 Z"
         id="path1505"
         inkscape:connector-curvature="0" /></clipPath></defs><sodipodi:namedview
     pagecolor="#ffffff"
     bordercolor="#666666"
     borderopacity="1"
     objecttolerance="10"
     gridtolerance="10"
     guidetolerance="10"
     inkscape:pageopacity="0"
     inkscape:pageshadow="2"
     inkscape:window-width="1366"
     inkscape:window-height="714"
     id="namedview1467"
     showgrid="false"
     inkscape:zoom="0.31723122"
     inkscape:cx="558.10774"
     inkscape:cy="396.85068"
     inkscape:window-x="0"
     inkscape:window-y="26"
     inkscape:window-maximized="1"
     inkscape:current-layer="g1503" /><g
     id="g1473"
     inkscape:groupmode="layer"
     inkscape:label="MUJ Manual_19 08 16"
     transform="matrix(1.3333333,0,0,-1.3333333,0,199.99998)"><g
       id="g1501"
       transform="matrix(0.51048599,0,0,0.51048599,-184.93545,-76.240256)"><g
         id="g1503"
         clip-path="url(#clipPath1507)"><g
           id="g1509"
           transform="translate(623.5511,282.2644)"><path
             d="m 0,0 c 0,0 0.662,0.875 2.583,1.204 2.125,5.713 2.649,10.328 2.983,12.925 0.824,4.792 9.275,4.527 12.445,10.323 -1.247,-6.66 -11.93,-5.413 -12.255,-13.124 2.733,4.103 7.829,4.322 11.336,7.414 3.507,3.099 1.817,9.001 0.942,12.877 -0.432,-1.883 -1.463,-3.349 -4.76,-3.64 -3.317,-0.296 -7.219,-3.386 -6.729,-7.371 3.49,2.301 9.499,3.13 11.247,6.994 C 17.34,21.285 3.979,21.005 3.887,16.024 3.775,13.758 3.404,11.944 3.035,9.966 0.294,16.591 -6.369,20.928 -11.138,28.984 -8.396,25.201 -0.472,17.97 2.286,14.187 1.088,26.842 -8.719,23.853 -13.628,36.096 -14.708,19.065 -4.472,15.678 -1.094,9.234 -1.682,14.161 -9.16,19.442 -12.39,29.148 -8.509,19.569 0.276,14.541 2.019,5.837 2.019,5.837 1.385,3.213 0,0"
             style="fill:#000000;fill-opacity:1;fill-rule:nonzero;stroke:none"
             id="path1511"
             inkscape:connector-curvature="0" /></g><g
           id="g1513"
           transform="translate(471.3299,203.8748)"><path
             d="m 0,0 c -9.623,6.6 -25.486,-3.202 -35.938,0.302 9.58,-1.719 18.103,3.473 25.716,2.986 0,0 -4.915,3.093 -11.722,3.559 -8.791,0.599 -14.953,-6.948 -23.038,-3.072 3.357,-3.018 11.241,-9.067 17.662,-9.511 8.924,-0.613 15.569,3.317 21.051,2.943 -6.199,2.551 -19.412,-3.254 -28.699,1.736 9.341,-3.202 25.961,3.479 34.361,-2.358 2.657,-1.794 11.272,-7.469 11.272,-7.469 2.739,0.849 4.616,1.013 4.616,1.013 L 10.47,-6.833 C 7.109,2.468 11.639,13.044 6.355,20.841 11.981,13.49 9.905,1.607 10.939,-0.72 13.153,4.44 14.584,18.86 -1.497,27.743 2.675,22.094 -1.814,17.622 -2.24,11.406 -2.666,5.195 4.823,-1.463 4.823,-1.463 3.32,6.312 8.805,16.56 2.148,24.118 10.383,17.314 4.63,5.687 6.099,-4.02 3.504,-2.315 0,0 0,0"
             style="fill:#000000;fill-opacity:1;fill-rule:nonzero;stroke:none"
             id="path1515"
             inkscape:connector-curvature="0" /></g><g
           id="g1517"
           transform="translate(447.7876,220.6907)"><path
             d="m 0,0 c -7.777,6.139 -22.439,-5.134 -31.109,0.106 8.722,-2.525 17.852,3.758 21.895,2.687 -11.144,7.904 -17.959,-0.429 -23.508,-0.052 -3.968,0.271 -8.287,3.34 -8.287,3.34 3.654,-4.088 11.518,-12.329 17.467,-12.735 7.141,-0.49 16.704,4.192 20.928,3.017 -4.515,3.896 -19.108,-3.605 -28.285,2.004 10.991,-4.339 22.848,4.417 29.791,-1.137 0,0 9.3,-7.043 12.108,-9.093 3.72,0.489 6.332,-0.729 6.332,-0.729 l -4.971,3.476 c -1.952,6.838 0.916,20.642 -5.776,30.168 8.02,-7.87 5.581,-19.235 6.58,-21.89 1.54,6.251 3.187,18.691 -14.671,28.757 C 3.49,20.671 -0.622,16.948 -0.187,12.454 0.164,7.296 6.217,-0.547 6.951,-3.153 7.115,4.02 8.604,15.589 2.739,23.905 12.405,13.994 7.219,0.749 8.961,-6.677 6.372,-4.78 1.895,-1.466 0,0"
             style="fill:#000000;fill-opacity:1;fill-rule:nonzero;stroke:none"
             id="path1519"
             inkscape:connector-curvature="0" /></g><g
           id="g1521"
           transform="translate(427.3582,237.7253)"><path
             d="m 0,0 c -6.297,5.986 -21.932,-3.441 -30.07,3.199 9.223,-4.057 16.963,0.723 21.936,-0.176 0,0 -4.357,3.306 -11.224,3.778 -6.871,0.467 -9.033,-4.791 -16.779,1.659 0,0 7.582,-12.635 16.701,-13.257 3.689,-0.254 11.325,2.018 17.861,1.569 -8.347,4.697 -18.123,-2.318 -26.18,3.545 7.665,-4.164 21.173,2.419 25.924,-2.148 3.225,-2.966 8.008,-7.423 12.407,-10.933 3.266,0.512 5.039,-0.513 5.039,-0.513 l -4.201,3.395 c -3.729,7.101 0.703,21.405 -4.218,29.978 5.333,-8.4 2.94,-17.136 3.559,-22.69 0.754,4.267 2.609,8.056 2.214,12.995 -0.406,5.174 -4.261,10.584 -11.302,16.311 0,0 2.701,-3.299 0.291,-11.301 C 0.138,9.159 1.325,3.354 6.577,-3.435 5.618,6.793 8.78,10.294 6.89,18.593 10.236,9.266 6.847,0.818 7.199,-6.352 5.514,-4.901 1.379,-1.273 0,0"
             style="fill:#000000;fill-opacity:1;fill-rule:nonzero;stroke:none"
             id="path1523"
             inkscape:connector-curvature="0" /></g><g
           id="g1525"
           transform="translate(405.2989,261.498)"><path
             d="m 0,0 c 0,0 -1.074,0.74 -3.363,0.809 -4.518,6.447 -6.51,10.418 -8.175,13.663 -2.635,4.938 -13.329,2.16 -17.962,8.192 3.942,-7.311 13.681,-3.862 16.894,-9.258 -3.245,2.08 -9.399,-0.526 -13.389,2.307 -3.994,2.839 -5.319,8.368 -5.872,14.501 0,0 1.521,-3.378 4.101,-3.553 2.574,-0.179 8.753,2.787 12.344,-5.895 -4.354,2.359 -11.268,0.308 -14.515,4.25 3.256,-6.726 17.187,-2.614 19.758,-8.641 1.889,-3.671 4.083,-7.466 4.083,-7.466 0.484,11.584 7.285,14.904 7.939,24.489 -1.682,-8.12 -8.247,-12.784 -9.05,-21.043 -6.194,16.75 7.437,16.508 9.246,28.17 0,0 4.742,-10.821 2.165,-17.893 C 1.535,15.29 -1.814,12.937 -2.54,8.67 -1.777,20.3 3.971,20.804 2.997,31.789 1.739,21.187 -4.829,17.386 -3.447,4.809 Z"
             style="fill:#000000;fill-opacity:1;fill-rule:nonzero;stroke:none"
             id="path1527"
             inkscape:connector-curvature="0" /></g><g
           id="g1529"
           transform="translate(393.1823,282.2644)"><path
             d="m 0,0 c 0,0 -0.665,0.875 -2.583,1.204 -2.128,5.713 -2.649,10.328 -2.983,12.925 -0.827,4.792 -9.278,4.527 -12.442,10.323 1.247,-6.66 11.927,-5.413 12.252,-13.124 -2.733,4.103 -7.832,4.322 -11.336,7.414 -3.51,3.099 -1.817,9.001 -0.942,12.877 0.429,-1.883 1.46,-3.349 4.76,-3.64 3.317,-0.296 7.219,-3.386 6.732,-7.371 -3.493,2.301 -9.505,3.13 -11.253,6.994 0.452,-6.317 13.819,-6.597 13.908,-11.578 0.112,-2.266 0.486,-4.08 0.849,-6.058 2.741,6.625 9.407,10.962 14.176,19.018 C 8.397,25.201 0.472,17.97 -2.283,14.187 -1.088,26.842 8.719,23.853 13.628,36.096 14.711,19.065 4.469,15.678 1.097,9.234 1.684,14.161 9.16,19.442 12.39,29.148 8.506,19.569 -0.279,14.541 -2.021,5.837 -2.021,5.837 -1.385,3.213 0,0"
             style="fill:#000000;fill-opacity:1;fill-rule:nonzero;stroke:none"
             id="path1531"
             inkscape:connector-curvature="0" /></g><g
           id="g1533"
           transform="translate(418.1929,246.5999)"><path
             d="M 0,0 C -2.882,6.565 3.72,17.668 -0.38,28.573 4.259,16.833 0.489,12.177 0.343,5.016 c 1.387,4.95 4.25,7.838 3.953,14.27 -0.302,6.436 -7.495,16.563 -8.958,19.428 1.843,-18.61 -9.024,-19.192 -0.207,-32.08 -0.489,5.477 5.903,10.619 2.171,24.953 5.007,-13.162 -1.31,-18.172 -0.659,-28.043 -1.331,1.414 -3.185,3.545 -4.866,5.512 -6.643,8.529 -19.926,-1.025 -26.393,6.389 6.703,-3.91 12.597,-0.265 18.439,-1.264 -10.086,7.798 -17.486,0.331 -22.35,6.217 2.347,-7.498 6.479,-12.831 14.089,-13.352 4.299,-0.294 9.574,1.134 12.917,0.443 -6.297,4.017 -17.838,-0.573 -21.929,5.586 5.174,-4.909 18.618,0.654 24.003,-6.196 3.187,-3.922 7.106,-7.985 10.115,-11.098 2.286,0.101 3.965,-0.397 3.965,-0.397 z"
             style="fill:#000000;fill-opacity:1;fill-rule:nonzero;stroke:none"
             id="path1535"
             inkscape:connector-curvature="0" /></g><g
           id="g1537"
           transform="translate(388.6326,312.9619)"><path
             d="M 0,0 C 0.942,4.308 -6.263,4.53 -9.819,9.937 -9.07,4.196 0.349,3.945 -0.915,-1.132 c -1.63,3.367 -6.551,4.251 -8.789,6.45 -2.614,2.569 -0.817,7.326 0.568,11.15 0,0 -0.257,-4.734 2.629,-5.195 2.891,-0.463 7.025,-1.299 7.477,-6.66 -3.285,3.85 -8.753,2.125 -10.486,7.331 0,0 -0.147,-3.179 4.889,-5.249 C 0.412,4.625 2.188,2.839 1.791,0.478 1.688,-0.092 1.512,-1.117 1.512,-1.117 3.824,2.966 13.257,6.997 16.943,12.321 12.736,8.094 8.192,6.747 3.147,3.107 c 3.257,6.153 6.56,8.085 11.411,9.312 3.755,0.95 5.958,5.914 5.958,5.914 C 18.25,2.272 9.753,2.603 4.722,-2.246 7.371,1.492 14.823,5.632 16.868,10.268 14.014,6.689 6.283,2.188 2.384,-2.83 1.82,-3.559 0.968,-4.964 0.864,-6.052 0.709,-7.944 0.541,-10.717 0.541,-10.717 c 0,0 -0.284,0.89 -1.707,1.777 C -0.927,-6.286 -0.777,-3.778 0,0"
             style="fill:#000000;fill-opacity:1;fill-rule:nonzero;stroke:none"
             id="path1539"
             inkscape:connector-curvature="0" /></g><g
           id="g1541"
           transform="translate(393.761,326.8726)"><path
             d="M 0,0 C 5.716,4.806 12.687,4.61 14.103,8.114 10.694,5.347 5.716,5.425 1.921,2.272 c 4.854,7.478 11.514,5.073 15.603,9.983 0,0 -0.976,-6.381 -5.396,-9.75 C 9.041,0.153 5.471,0.475 2.563,-1.964 3.933,1.463 11.561,2.076 13.994,6.461 11.146,3.26 4.515,1.972 0.567,-1.728 -0.055,-2.309 -0.855,-2.9 -1.068,-3.668 c -0.4,-1.495 -1.25,-4.884 -1.25,-4.884 0,0 -0.043,0.795 -1.238,1.69 0.498,2.028 1.273,4.61 1.71,6.082 1.238,3.847 -6.418,5.407 -8.218,9.306 1.555,-5.094 8.78,-6.24 7.34,-9.865 -0.861,2.566 -5.122,2.856 -7.265,5.615 -1.866,2.404 -1.324,6.078 0.11,9.488 -0.084,-1.469 1.056,-3.283 3.426,-3.882 C -3.519,9.139 -1.1,7.498 -0.97,3.971 -2.344,6.496 -7.363,6.427 -9.957,10.124 -8.722,5.796 1.227,3.855 0,0"
             style="fill:#000000;fill-opacity:1;fill-rule:nonzero;stroke:none"
             id="path1543"
             inkscape:connector-curvature="0" /></g><g
           id="g1545"
           transform="translate(410.3781,368.3594)"><path
             d="M 0,0 C 3.104,2.203 8.261,3.959 11.694,5.903 10.331,5.425 5.785,4.29 4.124,3.141 7.596,7.947 12.9,6.807 17.945,10.447 14.705,1.552 6.591,2.278 4.915,0.582 6.87,2.433 12.459,4.132 14.305,6.378 8.952,2.854 4.38,2.292 0.179,-1.408 c -0.418,-0.818 -1.313,-2.583 -1.313,-2.583 0,0 -0.346,0.354 -1.034,0.423 0.556,1.069 0.861,1.656 0.861,1.656 C 0.078,0.708 -3.11,2.18 -5.358,6.335 -5.393,3.303 -1.592,1.207 -2.027,-0.671 -3.746,2.882 -8.779,3.519 -5.37,10.297 -5.344,7.838 0.233,6.456 -0.089,1.944 -0.812,4.21 -5.22,6.283 -5.503,8.379 -4.362,4.486 0.294,2.574 0,0"
             style="fill:#000000;fill-opacity:1;fill-rule:nonzero;stroke:none"
             id="path1547"
             inkscape:connector-curvature="0" /></g><g
           id="g1549"
           transform="translate(415.2733,376.9832)"><path
             d="M 0,0 C 1.16,2.082 -2.43,4.478 -3.622,6.588 -3.038,4.996 -0.466,2.341 -0.665,0.893 -2.188,3.167 -7.553,6.677 -3.521,11.38 -3.153,7.512 0.04,8.336 0.976,3.962 -0.383,5.753 -2.445,5.9 -4.121,9.145 -3.009,5.724 0.346,4.653 1.399,1.924 4.27,4.296 10.688,6.104 13.11,7.875 10.76,6.862 7.403,5.724 5.307,4.596 10.271,9.482 13.677,8.538 19.016,11.794 14.924,3.185 7.895,3.939 6.752,2.721 8.12,4.296 13.199,6.136 14.44,7.622 9.666,4.489 2.41,2.367 1.327,0.107 0.959,-0.518 -0.132,-2.398 -0.132,-2.398 -0.421,-1.975 -1.065,-1.944 -1.065,-1.944 -0.671,-1.224 0,0 0,0"
             style="fill:#000000;fill-opacity:1;fill-rule:nonzero;stroke:none"
             id="path1551"
             inkscape:connector-curvature="0" /></g><g
           id="g1553"
           transform="translate(405.5552,358.938)"><path
             d="m 0,0 c -1.365,3.844 -5.923,4.921 -6.513,9.882 1.212,-3.737 4.532,-4.097 5.462,-7.057 0.374,5.453 -5.033,5.859 -5.099,9.631 -4.561,-7.247 1.477,-10.141 3.714,-13.951 0.674,2.054 -3.68,5.333 -4.446,8.596 1.5,-3.487 6.318,-7.055 5.151,-9.526 -0.38,-0.832 -1.149,-2.516 -1.149,-2.516 0.7,-0.654 0.873,-1.201 0.873,-1.201 0.518,1.186 1.615,3.634 1.615,3.634 3.675,4.572 11.573,5.621 15.99,9.655 C 13.102,3.697 5.191,1.736 2.327,-1.089 6.159,1.805 14.901,0.397 18.336,10.781 15.598,7.147 5.724,7.368 2.488,2.067 6.522,4.693 11.097,5.385 15.411,7.82 11.886,5.143 4.656,3.288 0,0"
             style="fill:#000000;fill-opacity:1;fill-rule:nonzero;stroke:none"
             id="path1555"
             inkscape:connector-curvature="0" /></g><g
           id="g1557"
           transform="translate(400.5651,345.8682)"><path
             d="M 0,0 C 0.429,1.065 1.25,1.446 1.996,1.828 5.192,3.449 11.616,6.191 14.484,8.586 10.873,4.61 3.153,2.01 1.935,0.417 4.42,1.621 14.726,2.208 18.981,13.715 13.424,9.096 7.57,10.389 3.79,5.197 5.961,6.565 10.219,6.827 14.204,9.813 10.3,5.923 3.746,4.987 0.515,2.963 -0.964,6.125 -5.494,8.641 -6.689,11.869 -4.259,8.561 -1.684,8.028 0.213,5.2 -0.656,11.69 -6.271,11.331 -6.68,15.477 -7.602,13.841 -9.162,10.018 -7.288,7.265 -5.413,4.506 -3.136,3.703 -1.9,1.008 -1.558,3.899 -6.862,7.437 -7.21,11.371 -6.199,8.163 -2.897,5.906 -1.451,3.035 -1.183,2.508 -0.798,1.638 -1.166,0.679 -1.765,-0.746 -2.79,-3.245 -2.79,-3.245 -1.92,-3.792 -1.762,-4.4 -1.762,-4.4 -1.221,-3.021 0,0 0,0"
             style="fill:#000000;fill-opacity:1;fill-rule:nonzero;stroke:none"
             id="path1559"
             inkscape:connector-curvature="0" /></g><g
           id="g1561"
           transform="translate(397.5735,337.8459)"><path
             d="m 0,0 c 1.201,3.162 -7.651,5.819 -8.552,11.037 1.82,-4.417 5.612,-3.971 7.153,-7.043 0.121,2.695 -1.469,5.122 -3.896,6.202 -2.704,1.204 -2.753,3.11 -2.58,5.077 C -8.814,13.994 -11.178,8.5 -9.753,5.854 -8.325,3.205 -4.832,2.684 -2.525,-0.8 -2.462,3 -8.909,3.957 -8.889,9.709 -6.977,5.022 -0.464,2.73 -1.837,-0.846 -2.557,-2.81 -3.404,-5.2 -3.404,-5.2 c 0.72,-0.844 1.048,-1.567 1.048,-1.567 0.45,1.36 1.112,3.3 1.112,3.3 C 0,0 10.058,2.9 13.686,6.724 10.478,1.944 4.158,0.826 2.969,-1.039 7.19,1.103 14.694,0.812 17.098,11.167 11.377,6.174 6.159,8.04 2.283,2.505 5.632,4.886 10.527,5.261 13.579,7.173 9.689,3.991 2.528,2.718 0,0"
             style="fill:#000000;fill-opacity:1;fill-rule:nonzero;stroke:none"
             id="path1563"
             inkscape:connector-curvature="0" /></g><g
           id="g1565"
           transform="translate(537.1077,160.5681)"><path
             d="M 0,0 1.909,3.484 1.895,3.496 c -11.483,6.127 -22.872,12.367 -34.087,18.912 -3.979,2.315 -7.924,4.667 -11.857,7.06 -3.64,2.229 -8.754,1.071 -12.869,-0.771 -4.111,-1.846 -15.954,-6.698 -25.134,-1.112 11.022,-4.564 24.622,3.213 27.386,2.995 -16.675,9.905 -19.914,-6.341 -35.287,1.886 12.776,-15.843 26.703,-14.758 38.262,-7.582 -4.458,0.838 -15.201,-7.368 -27.611,0.207 14.42,-6.654 27.409,5.264 33.487,1.431 3.914,-2.436 7.847,-4.831 11.806,-7.192 11.198,-6.692 22.581,-13.076 34.006,-19.327 z"
             style="fill:#000000;fill-opacity:1;fill-rule:nonzero;stroke:none"
             id="path1567"
             inkscape:connector-curvature="0" /></g><g
           id="g1569"
           transform="translate(420.1222,385.155)"><path
             d="m 0,0 c 0,0 -0.844,-0.245 -1.399,-0.619 l 0.838,1.422 c 1.35,2.246 -3.151,4.083 -3.64,5.794 0.406,-2.252 3.093,-2.779 2.689,-5.076 -1.14,3.602 -5.957,3.662 -2.461,8.37 C -3.248,7.078 0.225,6.79 0.435,3.501 -0.757,6.136 -2.96,5.975 -3.991,8.863 -4.287,6.306 1.097,3.556 0.303,2.24 1.581,4.348 7.04,5.624 10.193,7.357 8.771,7.023 5.258,5.578 4.483,5.56 7.029,7.55 13.487,8.949 17.556,11.884 15.612,9.398 12.966,6.378 7.527,4.964 c 0,0 3.072,1.572 4.469,2.681 C 8.385,5.554 2.283,3.882 1.005,1.716 0.19,0.348 0,0 0,0"
             style="fill:#000000;fill-opacity:1;fill-rule:nonzero;stroke:none"
             id="path1571"
             inkscape:connector-curvature="0" /></g><g
           id="g1573"
           transform="translate(425.8294,393.9805)"><path
             d="m 0,0 c 0,0 -0.743,-0.201 -1.235,-0.515 l 0.76,1.223 C 0.746,2.649 -3.15,4.334 -3.55,5.837 -3.234,3.858 -0.898,3.355 -1.293,1.354 -2.223,4.518 -6.427,4.662 -3.289,8.705 -2.704,6.237 0.322,5.926 0.443,3.047 -0.55,5.37 -2.479,5.27 -3.323,7.812 -3.634,5.583 1.025,3.084 0.305,1.952 1.457,3.766 6.248,4.78 9.035,6.237 7.789,5.969 4.688,4.774 4.014,4.771 6.277,6.464 11.938,7.564 15.543,10.049 13.801,7.916 11.434,5.327 6.66,4.198 c 0,0 2.712,1.316 3.956,2.258 C 7.42,4.694 2.065,3.346 0.907,1.477 0.17,0.302 0,0 0,0"
             style="fill:#000000;fill-opacity:1;fill-rule:nonzero;stroke:none"
             id="path1575"
             inkscape:connector-curvature="0" /></g><g
           id="g1577"
           transform="translate(545.4034,203.8748)"><path
             d="m 0,0 c 9.623,6.6 25.489,-3.202 35.938,0.302 -9.577,-1.719 -18.103,3.473 -25.716,2.986 0,0 4.912,3.093 11.722,3.559 C 30.735,7.446 36.897,-0.101 44.982,3.775 41.625,0.757 33.741,-5.292 27.32,-5.736 18.399,-6.349 11.754,-2.419 6.266,-2.793 12.468,-0.242 25.679,-6.047 34.968,-1.057 25.624,-4.259 9.007,2.422 0.607,-3.415 c -2.657,-1.794 -11.275,-7.469 -11.275,-7.469 -2.736,0.849 -4.616,1.013 -4.616,1.013 l 4.811,3.038 c 3.364,9.301 -1.166,19.877 4.118,27.674 C -11.981,13.49 -9.908,1.607 -10.942,-0.72 -13.156,4.44 -14.584,18.86 1.494,27.743 -2.675,22.094 1.814,17.622 2.237,11.406 2.666,5.195 -4.823,-1.463 -4.823,-1.463 -3.323,6.312 -8.805,16.56 -2.151,24.118 -10.383,17.314 -4.633,5.687 -6.101,-4.02 -3.507,-2.315 0,0 0,0"
             style="fill:#000000;fill-opacity:1;fill-rule:nonzero;stroke:none"
             id="path1579"
             inkscape:connector-curvature="0" /></g><g
           id="g1581"
           transform="translate(568.9457,220.6907)"><path
             d="M 0,0 C 7.774,6.139 22.439,-5.134 31.109,0.106 22.387,-2.419 13.26,3.864 9.214,2.793 20.355,10.697 27.17,2.364 32.725,2.741 c 3.962,0.271 8.281,3.34 8.281,3.34 C 37.355,1.993 29.491,-6.248 23.542,-6.654 16.398,-7.144 6.839,-2.462 2.612,-3.637 7.129,0.259 21.722,-7.242 30.899,-1.633 19.908,-5.972 8.051,2.784 1.111,-2.77 c 0,0 -9.306,-7.043 -12.111,-9.093 -3.72,0.489 -6.331,-0.729 -6.331,-0.729 l 4.967,3.476 c 1.955,6.838 -0.916,20.642 5.776,30.168 -8.019,-7.87 -5.581,-19.235 -6.58,-21.89 -1.537,6.251 -3.184,18.691 14.674,28.757 C -3.49,20.671 0.619,16.948 0.187,12.454 -0.164,7.296 -6.22,-0.547 -6.951,-3.153 -7.118,4.02 -8.604,15.589 -2.741,23.905 -12.405,13.994 -7.219,0.749 -8.961,-6.677 -6.369,-4.78 -1.898,-1.466 0,0"
             style="fill:#000000;fill-opacity:1;fill-rule:nonzero;stroke:none"
             id="path1583"
             inkscape:connector-curvature="0" /></g><g
           id="g1585"
           transform="translate(589.3782,237.7253)"><path
             d="M 0,0 C 6.294,5.986 21.93,-3.441 30.067,3.199 20.841,-0.858 13.104,3.922 8.131,3.023 c 0,0 4.357,3.306 11.227,3.778 6.868,0.467 9.03,-4.791 16.773,1.659 0,0 -7.582,-12.635 -16.695,-13.257 C 15.745,-5.051 8.111,-2.779 1.569,-3.228 9.919,1.469 19.695,-5.546 27.752,0.317 20.084,-3.847 6.579,2.736 1.828,-1.831 c -3.225,-2.966 -8.01,-7.423 -12.41,-10.933 -3.265,0.512 -5.039,-0.513 -5.039,-0.513 l 4.204,3.395 c 3.729,7.101 -0.706,21.405 4.218,29.978 -5.335,-8.4 -2.942,-17.136 -3.556,-22.69 -0.757,4.267 -2.612,8.056 -2.217,12.995 0.409,5.174 4.259,10.584 11.299,16.311 0,0 -2.692,-3.299 -0.291,-11.301 C -0.138,9.159 -1.327,3.354 -6.58,-3.435 -5.621,6.793 -8.782,10.294 -6.893,18.593 -10.242,9.266 -6.847,0.818 -7.199,-6.352 -5.52,-4.901 -1.382,-1.273 0,0"
             style="fill:#000000;fill-opacity:1;fill-rule:nonzero;stroke:none"
             id="path1587"
             inkscape:connector-curvature="0" /></g><g
           id="g1589"
           transform="translate(611.4373,261.498)"><path
             d="m 0,0 c 0,0 1.071,0.74 3.36,0.809 4.518,6.447 6.511,10.418 8.175,13.663 2.632,4.938 13.329,2.16 17.962,8.192 -3.945,-7.311 -13.674,-3.862 -16.894,-9.258 3.245,2.08 9.399,-0.526 13.39,2.307 3.99,2.839 5.318,8.368 5.868,14.501 0,0 -1.518,-3.378 -4.098,-3.553 -2.574,-0.179 -8.753,2.787 -12.347,-5.895 4.354,2.359 11.271,0.308 14.518,4.25 C 26.678,18.29 12.747,22.402 10.176,16.375 8.284,12.704 6.09,8.909 6.09,8.909 5.609,20.493 -1.189,23.813 -1.849,33.398 c 1.685,-8.12 8.25,-12.784 9.053,-21.043 6.194,16.75 -7.437,16.508 -9.246,28.17 0,0 -4.745,-10.821 -2.168,-17.893 C -1.541,15.29 1.808,12.937 2.534,8.67 1.774,20.3 -3.974,20.804 -3,31.789 -1.742,21.187 4.826,17.386 3.444,4.809 Z"
             style="fill:#000000;fill-opacity:1;fill-rule:nonzero;stroke:none"
             id="path1591"
             inkscape:connector-curvature="0" /></g><g
           id="g1593"
           transform="translate(598.5405,246.5999)"><path
             d="M 0,0 C 2.885,6.565 -3.72,17.668 0.38,28.573 -4.259,16.833 -0.489,12.177 -0.343,5.016 c -1.385,4.95 -4.253,7.838 -3.956,14.27 0.305,6.436 7.498,16.563 8.958,19.428 C 2.819,20.104 13.683,19.522 4.872,6.634 5.359,12.111 -1.034,17.253 2.695,31.587 -2.312,18.425 4.011,13.415 3.357,3.544 4.688,4.958 6.539,7.089 8.223,9.056 14.867,17.585 28.152,8.031 34.616,15.445 27.91,11.535 22.019,15.18 16.174,14.181 26.266,21.979 33.66,14.512 38.527,20.398 36.183,12.9 32.048,7.567 24.435,7.046 20.136,6.752 14.861,8.18 11.521,7.489 17.818,11.506 29.356,6.916 33.447,13.075 28.276,8.166 14.832,13.729 9.447,6.879 6.26,2.957 2.341,-1.106 -0.668,-4.219 -2.954,-4.118 -4.633,-4.616 -4.633,-4.616 Z"
             style="fill:#000000;fill-opacity:1;fill-rule:nonzero;stroke:none"
             id="path1595"
             inkscape:connector-curvature="0" /></g><g
           id="g1597"
           transform="translate(628.1007,312.9619)"><path
             d="M 0,0 C -0.944,4.308 6.26,4.53 9.819,9.937 9.073,4.196 -0.349,3.945 0.913,-1.132 c 1.63,3.367 6.553,4.251 8.791,6.45 2.611,2.569 0.814,7.326 -0.571,11.15 0,0 0.26,-4.734 -2.629,-5.195 -2.888,-0.463 -7.022,-1.299 -7.477,-6.66 3.288,3.85 8.756,2.125 10.486,7.331 0,0 0.15,-3.179 -4.886,-5.249 -5.039,-2.07 -6.818,-3.856 -6.418,-6.217 0.104,-0.57 0.276,-1.595 0.276,-1.595 -2.312,4.083 -11.739,8.114 -15.428,13.438 4.207,-4.227 8.748,-5.574 13.799,-9.214 -3.26,6.153 -6.563,8.085 -11.414,9.312 -3.758,0.95 -5.955,5.914 -5.955,5.914 2.26,-16.061 10.76,-15.73 15.794,-20.579 -2.647,3.738 -10.104,7.878 -12.146,12.514 2.851,-3.579 10.585,-8.08 14.483,-13.098 0.562,-0.729 1.414,-2.134 1.515,-3.222 0.158,-1.892 0.326,-4.665 0.326,-4.665 0,0 0.282,0.89 1.704,1.777 C 0.927,-6.286 0.775,-3.778 0,0"
             style="fill:#000000;fill-opacity:1;fill-rule:nonzero;stroke:none"
             id="path1599"
             inkscape:connector-curvature="0" /></g><g
           id="g1601"
           transform="translate(622.9694,326.8726)"><path
             d="m 0,0 c -5.715,4.806 -12.681,4.61 -14.1,8.114 3.406,-2.767 8.387,-2.689 12.18,-5.842 -4.855,7.478 -11.515,5.073 -15.601,9.983 0,0 0.976,-6.381 5.396,-9.75 3.084,-2.352 6.657,-2.03 9.568,-4.469 -1.373,3.427 -9.001,4.04 -11.434,8.425 2.851,-3.201 9.476,-4.489 13.427,-8.189 0.619,-0.581 1.422,-1.172 1.635,-1.94 0.401,-1.495 1.25,-4.884 1.25,-4.884 0,0 0.04,0.795 1.238,1.69 C 3.058,-4.834 2.286,-2.252 1.846,-0.78 0.608,3.067 8.267,4.627 10.067,8.526 8.512,3.432 1.287,2.286 2.724,-1.339 3.588,1.227 7.849,1.517 9.992,4.276 11.855,6.68 11.313,10.354 9.879,13.764 9.963,12.295 8.826,10.481 6.459,9.882 3.522,9.139 1.1,7.498 0.97,3.971 2.344,6.496 7.366,6.427 9.957,10.124 8.725,5.796 -1.224,3.855 0,0"
             style="fill:#000000;fill-opacity:1;fill-rule:nonzero;stroke:none"
             id="path1603"
             inkscape:connector-curvature="0" /></g><g
           id="g1605"
           transform="translate(606.3552,368.3594)"><path
             d="m 0,0 c -3.104,2.203 -8.258,3.959 -11.696,5.903 1.362,-0.478 5.911,-1.613 7.57,-2.762 -3.47,4.806 -8.774,3.666 -13.822,7.306 3.243,-8.895 11.354,-8.169 13.033,-9.865 -1.958,1.851 -7.541,3.55 -9.393,5.796 5.359,-3.524 9.928,-4.086 14.126,-7.786 0.421,-0.818 1.314,-2.583 1.314,-2.583 0,0 0.345,0.354 1.036,0.423 C 1.612,-2.499 1.304,-1.912 1.304,-1.912 -0.081,0.708 3.11,2.18 5.358,6.335 5.393,3.303 1.589,1.207 2.03,-0.671 3.743,2.882 8.776,3.519 5.373,10.297 5.344,7.838 -0.231,6.456 0.089,1.944 0.812,4.21 5.223,6.283 5.503,8.379 4.362,4.486 -0.294,2.574 0,0"
             style="fill:#000000;fill-opacity:1;fill-rule:nonzero;stroke:none"
             id="path1607"
             inkscape:connector-curvature="0" /></g><g
           id="g1609"
           transform="translate(601.4601,376.9832)"><path
             d="M 0,0 C -1.163,2.082 2.43,4.478 3.622,6.588 3.035,4.996 0.466,2.341 0.662,0.893 2.191,3.167 7.55,6.677 3.519,11.38 3.15,7.512 -0.038,8.336 -0.976,3.962 0.383,5.753 2.445,5.9 4.121,9.145 3.006,5.724 -0.349,4.653 -1.402,1.924 c -2.865,2.372 -9.286,4.18 -11.705,5.951 2.344,-1.013 5.704,-2.151 7.8,-3.279 -4.964,4.886 -8.37,3.942 -13.706,7.198 4.089,-8.609 11.118,-7.855 12.261,-9.073 -1.371,1.575 -6.447,3.415 -7.689,4.901 C -9.663,4.489 -2.41,2.367 -1.325,0.107 -0.962,-0.518 0.132,-2.398 0.132,-2.398 0.42,-1.975 1.063,-1.944 1.063,-1.944 0.668,-1.224 0,0 0,0"
             style="fill:#000000;fill-opacity:1;fill-rule:nonzero;stroke:none"
             id="path1611"
             inkscape:connector-curvature="0" /></g><g
           id="g1613"
           transform="translate(611.1782,358.938)"><path
             d="M 0,0 C 1.365,3.844 5.92,4.921 6.513,9.882 5.298,6.145 1.981,5.785 1.051,2.825 0.677,8.278 6.084,8.684 6.148,12.456 10.714,5.209 4.673,2.315 2.436,-1.495 1.762,0.559 6.116,3.838 6.885,7.101 5.388,3.614 0.564,0.046 1.728,-2.425 2.114,-3.257 2.88,-4.941 2.88,-4.941 2.18,-5.595 2.007,-6.142 2.007,-6.142 1.486,-4.956 0.392,-2.508 0.392,-2.508 -3.286,2.064 -11.181,3.113 -15.598,7.147 -13.104,3.697 -5.191,1.736 -2.324,-1.089 -6.159,1.805 -14.901,0.397 -18.339,10.781 -15.598,7.147 -5.724,7.368 -2.488,2.067 -6.522,4.693 -11.097,5.385 -15.413,7.82 -11.886,5.143 -4.659,3.288 0,0"
             style="fill:#000000;fill-opacity:1;fill-rule:nonzero;stroke:none"
             id="path1615"
             inkscape:connector-curvature="0" /></g><g
           id="g1617"
           transform="translate(616.1653,345.8682)"><path
             d="M 0,0 C -0.429,1.065 -1.247,1.446 -1.993,1.828 -5.189,3.449 -11.615,6.191 -14.481,8.586 -10.873,4.61 -3.15,2.01 -1.932,0.417 -4.42,1.621 -14.725,2.208 -18.978,13.715 -13.424,9.096 -7.57,10.389 -3.786,5.197 -5.961,6.565 -10.219,6.827 -14.204,9.813 -10.297,5.923 -3.746,4.987 -0.51,2.963 0.967,6.125 5.497,8.641 6.692,11.869 4.261,8.561 1.69,8.028 -0.207,5.2 0.659,11.69 6.274,11.331 6.683,15.477 7.605,13.841 9.165,10.018 7.291,7.265 5.416,4.506 3.136,3.703 1.903,1.008 1.564,3.899 6.865,7.437 7.216,11.371 6.2,8.163 2.897,5.906 1.451,3.035 1.186,2.508 0.798,1.638 1.166,0.679 1.768,-0.746 2.796,-3.245 2.796,-3.245 1.921,-3.792 1.762,-4.4 1.762,-4.4 1.227,-3.021 0,0 0,0"
             style="fill:#000000;fill-opacity:1;fill-rule:nonzero;stroke:none"
             id="path1619"
             inkscape:connector-curvature="0" /></g><g
           id="g1621"
           transform="translate(619.1572,337.8459)"><path
             d="M 0,0 C -1.198,3.162 7.654,5.819 8.558,11.037 6.732,6.62 2.94,7.066 1.402,3.994 1.278,6.689 2.868,9.116 5.295,10.196 7.999,11.4 8.048,13.306 7.881,15.273 8.817,13.994 11.183,8.5 9.755,5.854 8.327,3.205 4.837,2.684 2.525,-0.8 2.462,3 8.909,3.957 8.892,9.709 6.979,5.022 0.466,2.73 1.84,-0.846 2.56,-2.81 3.406,-5.2 3.406,-5.2 2.689,-6.044 2.358,-6.767 2.358,-6.767 1.909,-5.407 1.25,-3.467 1.25,-3.467 0,0 -10.055,2.9 -13.68,6.724 -10.479,1.944 -4.158,0.826 -2.969,-1.039 -7.19,1.103 -14.691,0.812 -17.098,11.167 -11.377,6.174 -6.156,8.04 -2.278,2.505 -5.632,4.886 -10.527,5.261 -13.579,7.173 -9.687,3.991 -2.525,2.718 0,0"
             style="fill:#000000;fill-opacity:1;fill-rule:nonzero;stroke:none"
             id="path1623"
             inkscape:connector-curvature="0" /></g><g
           id="g1625"
           transform="translate(479.6227,160.5681)"><path
             d="m 0,0 -1.909,3.484 0.02,0.015 c 11.478,6.124 22.866,12.364 34.084,18.909 3.979,2.315 7.921,4.667 11.857,7.06 3.64,2.229 8.76,1.071 12.869,-0.771 4.109,-1.846 15.952,-6.698 25.134,-1.112 -11.02,-4.564 -24.619,3.213 -27.389,2.995 16.678,9.905 19.914,-6.341 35.287,1.886 -12.773,-15.843 -26.7,-14.758 -38.261,-7.582 4.46,0.838 15.203,-7.368 27.613,0.207 -14.42,-6.654 -27.406,5.264 -33.49,1.431 C 41.904,24.086 37.971,21.691 34.012,19.33 22.814,12.638 11.431,6.254 0.006,0.003 Z"
             style="fill:#000000;fill-opacity:1;fill-rule:nonzero;stroke:none"
             id="path1627"
             inkscape:connector-curvature="0" /></g><g
           id="g1629"
           transform="translate(596.6083,385.155)"><path
             d="M 0,0 C 0,0 0.846,-0.245 1.405,-0.619 L 0.561,0.803 C -0.789,3.049 3.712,4.886 4.204,6.597 3.798,4.345 1.112,3.818 1.512,1.521 2.655,5.123 7.472,5.183 3.976,9.891 3.248,7.078 -0.225,6.79 -0.432,3.501 0.757,6.136 2.963,5.975 3.991,8.863 4.29,6.306 -1.094,3.556 -0.3,2.24 c -1.278,2.108 -6.734,3.384 -9.893,5.117 1.422,-0.334 4.938,-1.779 5.715,-1.797 -2.548,1.99 -9.009,3.389 -13.072,6.324 1.941,-2.486 4.587,-5.506 10.026,-6.92 0,0 -3.07,1.572 -4.472,2.681 C -8.379,5.554 -2.283,3.882 -0.999,1.716 -0.19,0.348 0,0 0,0"
             style="fill:#000000;fill-opacity:1;fill-rule:nonzero;stroke:none"
             id="path1631"
             inkscape:connector-curvature="0" /></g><g
           id="g1633"
           transform="translate(590.907,393.9805)"><path
             d="M 0,0 C 0,0 0.74,-0.201 1.232,-0.515 L 0.472,0.708 C -0.752,2.649 3.147,4.334 3.545,5.837 3.234,3.858 0.896,3.355 1.29,1.354 2.217,4.518 6.421,4.662 3.288,8.705 2.704,6.237 -0.323,5.926 -0.446,3.047 0.547,5.37 2.474,5.27 3.32,7.812 3.628,5.583 -1.028,3.084 -0.305,1.952 -1.46,3.766 -6.251,4.78 -9.038,6.237 c 1.246,-0.268 4.344,-1.463 5.021,-1.466 -2.26,1.693 -7.927,2.793 -11.532,5.278 1.742,-2.133 4.109,-4.722 8.886,-5.851 0,0 -2.712,1.316 -3.957,2.258 3.197,-1.762 8.552,-3.11 9.716,-4.979 C -0.173,0.302 0,0 0,0"
             style="fill:#000000;fill-opacity:1;fill-rule:nonzero;stroke:none"
             id="path1635"
             inkscape:connector-curvature="0" /></g><g
           id="g1637"
           transform="translate(523.9775,375.7625)"><path
             d="m 0,0 c -9.361,0 -20.893,5.941 -30.127,15.48 -6.658,6.879 -11.326,14.774 -13.168,22.249 -1.877,7.59 -0.613,13.867 3.562,17.645 2.574,2.338 6.167,3.571 10.349,3.571 9.38,0 20.913,-5.929 30.129,-15.474 C 7.385,36.6 12.071,28.708 13.922,21.241 15.808,13.629 14.526,7.36 10.357,3.579 7.777,1.25 4.21,0 0,0"
             style="fill:#000000;fill-opacity:1;fill-rule:nonzero;stroke:none"
             id="path1639"
             inkscape:connector-curvature="0" /></g><g
           id="g1641"
           transform="translate(509.4967,366.5886)"><path
             d="m 0,0 c 0,0 -39.307,0 -49.598,-0.654 -18.336,-0.754 -25.062,-4.532 -26.724,-9.259 -0.821,-2.368 -0.369,-4.936 0.559,-7.586 1.422,-4.158 4.373,-8.842 9.951,-11.644 1.29,-0.665 2.183,-1.249 3.187,-2.004 8.092,-6.206 7.262,-15.995 7.262,-25.868 0,-10.508 0.104,-24.963 0.363,-38.415 0.137,-7.361 4.05,-13.13 8.627,-13.13 l 0.118,0.002 c 6.726,0.141 9.3,5.693 9.951,13.352 0.683,5.474 1.172,27.539 1.172,38.191 0,7.422 3.24,12.145 9.278,12.266 7.564,0 9.237,-5.658 9.237,-12.266 0,-6.595 0.582,-23.868 0.498,-38.541 -0.052,-12.371 4.291,-16.857 9.516,-16.857 5.765,0 10.343,5.336 10.269,16.857 0,6.109 0.212,29.501 0.212,38.541 0,6.596 3.49,12.266 8.826,12.266 8.506,0 9.785,-8.601 9.678,-12.266 -0.06,-1.541 -0.078,-4.228 -0.06,-8.279 0,-5.626 0.06,-13.827 0.06,-25.267 0,-16.485 3.26,-23.455 10.32,-23.455 5.966,0 9.177,6.469 9.22,23.455 v 33.546 c 0,1.879 0.219,3.628 0.706,5.223 0.915,2.913 3.017,5.425 6.121,7.161 2.724,1.529 6.113,2.422 11.028,2.874 19.983,2.223 21.846,13.608 17.74,24.063 -3.863,9.85 -6.91,13.692 -18.474,15.186 z"
             style="fill:#000000;fill-opacity:1;fill-rule:nonzero;stroke:none"
             id="path1643"
             inkscape:connector-curvature="0" /></g><g
           id="g1645"
           transform="translate(531.8557,288.687)"><path
             d="m 0,0 c 0.01,-3.688 0.017,-7.89 0.017,-12.648 0,-5.442 0.357,-9.847 1.088,-13.307 -0.728,3.459 -1.082,7.86 -1.082,13.296 C 0.023,-7.893 0.012,-3.69 0,0 m -0.038,12.79 c 0,-0.132 0.001,-0.266 0.001,-0.401 v 0.219 c 0,0.061 -0.001,0.122 -0.001,0.182 m -38.935,7.257 c 0.042,-7.132 0.572,-23.607 0.486,-37.696 -0.037,-7.87 1.705,-12.538 4.317,-14.91 -0.024,0.027 -0.048,0.054 -0.073,0.081 -2.565,2.391 -4.268,7.051 -4.235,14.823 0.08,14.087 -0.453,30.573 -0.495,37.702 m -0.003,0.923 v -0.067 0.067 m 0,0.084 v -0.045 0.045 m -10e-4,0.092 c 0,-0.018 0,-0.035 0,-0.053 0,0.018 0,0.035 0,0.053 m -0.001,0.097 c 0,-0.024 0.001,-0.048 0.001,-0.072 0,0.025 -0.001,0.048 -0.001,0.072 m -38.73,2.494 c -0.01,-0.945 -0.02,-1.896 -0.02,-2.848 0,-10.519 0.105,-24.971 0.355,-38.406 0.076,-3.694 1.093,-6.993 2.679,-9.361 -1.577,2.364 -2.596,5.656 -2.665,9.349 -0.259,13.452 -0.363,27.908 -0.363,38.415 0,0.952 0.008,1.903 0.014,2.851 M -2.74,30.135 C -0.383,27.289 0.078,23.153 0.017,20.889 0,20.414 -0.012,19.828 -0.021,19.126 c 0.011,0.7 0.025,1.285 0.044,1.76 0.066,2.263 -0.397,6.409 -2.763,9.249 m -38.828,0.458 c 1.941,-2.212 2.554,-5.606 2.59,-9.339 -0.036,3.724 -0.634,7.113 -2.562,9.313 -0.009,0.008 -0.018,0.017 -0.028,0.026"
             style="fill:#000000;fill-opacity:1;fill-rule:nonzero;stroke:none"
             id="path1647"
             inkscape:connector-curvature="0" /></g><g
           id="g1649"
           transform="translate(528.8698,319.1067)"><path
             d="m 0,0 c 0.084,-0.094 0.166,-0.188 0.246,-0.285 2.366,-2.84 2.829,-6.985 2.763,-9.248 -0.019,-0.476 -0.033,-1.061 -0.044,-1.761 -0.019,-1.532 -0.022,-3.621 -0.017,-6.335 0,-0.061 10e-4,-0.122 10e-4,-0.183 v -0.219 c 0.007,-3.238 0.024,-7.33 0.037,-12.389 0.012,-3.69 0.023,-7.893 0.023,-12.659 0,-5.436 0.354,-9.837 1.082,-13.296 0.827,-3.91 2.134,-6.613 3.946,-8.24 -2.986,3.321 -4.432,10.047 -4.432,20.925 0,19.733 -0.124,29.883 0,33.552 C 3.688,-7.622 3.107,-2.796 0,0 m -38.554,0.148 c 1.928,-2.201 2.526,-5.59 2.562,-9.313 v -0.012 c 0,-0.024 10e-4,-0.047 10e-4,-0.072 v -0.025 c 0,-0.018 0,-0.035 0,-0.052 0,-0.014 10e-4,-0.027 10e-4,-0.04 v -0.045 c 0,-0.013 0,-0.026 0,-0.038 v -0.068 -0.014 c 0,-0.264 0.001,-0.545 0.003,-0.842 0.042,-7.129 0.575,-23.614 0.495,-37.701 -0.033,-7.772 1.67,-12.433 4.235,-14.823 -2.225,2.537 -3.659,7.036 -3.628,14.203 0.084,14.679 -0.492,31.948 -0.492,38.556 0,4.213 -0.694,8.073 -3.177,10.286 m -41.18,14.223 c 5.239,-5.512 5.101,-13.109 5.012,-21.054 -0.006,-0.947 -0.014,-1.898 -0.014,-2.85 0,-10.508 0.104,-24.963 0.363,-38.415 0.069,-3.693 1.088,-6.986 2.665,-9.35 0.506,-0.755 1.07,-1.416 1.681,-1.963 -2.181,2.361 -3.655,6.251 -3.738,10.699 -0.265,13.456 -0.355,27.902 -0.355,38.424 0,9.254 0.922,18.318 -5.614,24.509"
             style="fill:#000000;fill-opacity:1;fill-rule:nonzero;stroke:none"
             id="path1651"
             inkscape:connector-curvature="0" /></g><g
           id="g1653"
           transform="translate(522.5614,421.3667)"><path
             d="M 0,0 C 0.537,-0.504 1.067,-1.021 1.59,-1.549 1.625,-1.584 1.66,-1.618 1.695,-1.653 1.138,-1.088 0.572,-0.538 0,0 m -27.664,13.338 c 0.007,0 0.014,0 0.021,0 -0.007,0 -0.014,0 -0.021,0 m -0.133,0.002 h 0.046 -0.046 m -0.171,10e-4 c -4.181,0 -7.775,-1.233 -10.349,-3.571 -2.919,-2.642 -4.415,-6.505 -4.41,-11.185 -0.005,4.68 1.491,8.543 4.41,11.185 2.574,2.338 6.168,3.571 10.349,3.571 0.036,0 0.072,0 0.108,-10e-4 -0.036,10e-4 -0.072,10e-4 -0.108,10e-4"
             style="fill:#000000;fill-opacity:1;fill-rule:nonzero;stroke:none"
             id="path1655"
             inkscape:connector-curvature="0" /></g><g
           id="g1657"
           transform="translate(494.5933,434.7073)"><path
             d="m 0,0 c -4.181,0 -7.775,-1.232 -10.349,-3.571 -2.919,-2.641 -4.415,-6.504 -4.41,-11.185 0.003,-2.013 0.283,-4.177 0.848,-6.46 1.843,-7.475 6.511,-15.37 13.168,-22.249 0.362,-0.363 0.72,-0.726 1.1,-1.088 l -0.487,0.486 c -6.654,6.859 -11.325,14.763 -13.156,22.235 -1.886,7.599 -0.625,13.87 3.55,17.654 2.581,2.335 6.156,3.562 10.366,3.562 8.949,0 19.91,-5.438 28.928,-14.274 -0.523,0.528 -1.053,1.045 -1.59,1.549 -8.715,8.182 -19.063,13.214 -27.643,13.338 -0.007,0 -0.014,0 -0.021,0.001 -0.029,0 -0.058,0.001 -0.087,0.001 H 0.171 C 0.15,-0.001 0.129,-0.001 0.108,0 0.072,0 0.036,0 0,0"
             style="fill:#000000;fill-opacity:1;fill-rule:nonzero;stroke:none"
             id="path1659"
             inkscape:connector-curvature="0" /></g></g></g></g></svg>